<svg height="395" viewBox="0 0 1168 395" width="1168" xmlns="http://www.w3.org/2000/svg" xmlns:xlink="http://www.w3.org/1999/xlink"><defs><path id="a" d="m366.609 1.76h29.528c.178 1.51.465 2.834.465 4.155.02 85.89-.045 171.783.137048 257.669.010952 5.986-1.870048 9.794-6.888048 12.859-7.515 4.594-14.687 9.756-22.081 14.554-15.201 9.854-30.455 8.612-45.338-.515-7.871-4.828-15.481-10.164-22.75-15.855-2.346-1.84-4.575-5.548-4.583-8.401-.238-87.104-.193-174.209-.178-261.313 0-.795.174-1.589.325-2.884h29.634v8.197c0 86.09-.042 172.181.057 258.279.012 8.083 1.991 15.932 10.373 19.314 8.378 3.375 17.017 3.239 24.593-2.581 5.62-4.313 6.667-10.755 6.671-17.294.057-61.584.034-123.164.034-184.744z"/><filter id="b" height="152.3%" width="252.2%" x="-56.5%" y="-18.4%"><feMorphology in="SourceAlpha" operator="dilate" radius="6" result="shadowSpreadOuter1"/><feOffset dx="20" dy="23" in="shadowSpreadOuter1" result="shadowOffsetOuter1"/><feGaussianBlur in="shadowOffsetOuter1" result="shadowBlurOuter1" stdDeviation="16"/><feColorMatrix in="shadowBlurOuter1" type="matrix" values="0 0 0 0 0   0 0 0 0 0   0 0 0 0 0  0 0 0 0.442204402 0"/></filter><path id="c" d="m0 1.707c12.167 0 24.071-.28 35.958.095 9.037.28 18.24.503 27.03 2.354 13.994 2.944 27.046 9.013 34.788 21.584 3.659 5.949 5.472 13.915 5.601 21.01.579 31.795.228 63.605.261 95.407.011 8.329-3.565 14.675-11.417 17.173-18.622 5.941-37.395 11.42-56.241 16.612-4.185 1.158-5.381 2.739-5.362 6.88.141 33.619.023 67.245.129 100.871.019 5.979-1.544 9.824-8.23 10.989-7.413 1.294-14.652 3.595-22.517 5.601zm30.94 166.592c8.673-1.802 16.714-3.194 24.601-5.178 14.86-3.738 17.695-9.482 17.907-22.443.598-36.654.28-73.327.147-109.991-.038-10.361-5.116-18.093-13.688-19.455-9.411-1.498-19.054-1.54-28.968-2.24z"/><filter id="d" height="153%" width="249.4%" x="-55.4%" y="-18.2%"><feMorphology in="SourceAlpha" operator="dilate" radius="6" result="shadowSpreadOuter1"/><feOffset dx="20" dy="23" in="shadowSpreadOuter1" result="shadowOffsetOuter1"/><feGaussianBlur in="shadowOffsetOuter1" result="shadowBlurOuter1" stdDeviation="16"/><feColorMatrix in="shadowBlurOuter1" type="matrix" values="0 0 0 0 0   0 0 0 0 0   0 0 0 0 0  0 0 0 0.442204402 0"/></filter><path id="e" d="m205.55 0c15.723 98.529 31.352 196.43 47.117 295.221-9.562 0-18.955.158-28.328-.189-1.226-.046-3.152-2.566-3.41-4.148-3.042-18.943-5.771-37.932-8.711-56.891-1.585-10.203-3.424-20.375-5.305-31.455-6.546 1.529-12.855 2.975-19.148 4.488-9.302 2.24-18.497 5.117-27.916 6.623-8.182 1.309-9.052 6.992-9.979 13.131-3.289 21.676-6.399 43.382-9.85 65.035-1.079 6.743-6.437 1.953-10.456 3.776 1.479-10.126 2.771-19.321 4.182-28.51 2.218-14.403 4.553-28.79 6.781-43.2 2.653-17.143 5.253-34.301 7.86-51.457 2.251-14.812 4.473-29.62 6.725-44.423 2.225-14.603 4.477-29.199 6.698-43.802 2.235373-14.6213288 4.455374-29.2450036 6.66-43.871 1.31-8.677 2.384-17.392 3.943-26.023.791-4.409 3.356-7.148 8.363-8.079 8.006-1.496 15.843-3.929 24.774-6.226zm-24.37 31.311c-.552.019-1.105.042-1.658.061-8.598 57.868-17.195 115.732-25.99 174.905 17.525-4.427 34.391-8.696 51.866-13.124-8.102-54.137-16.162-107.989-24.218-161.842z"/><filter id="f" height="153.4%" width="228.8%" x="-47.9%" y="-19.4%"><feMorphology in="SourceAlpha" operator="dilate" radius="6" result="shadowSpreadOuter1"/><feOffset dx="20" dy="23" in="shadowSpreadOuter1" result="shadowOffsetOuter1"/><feGaussianBlur in="shadowOffsetOuter1" result="shadowBlurOuter1" stdDeviation="16"/><feColorMatrix in="shadowBlurOuter1" type="matrix" values="0 0 0 0 0   0 0 0 0 0   0 0 0 0 0  0 0 0 0.442204402 0"/></filter><path id="g" d="m996.714 1.832h82.571v10.069h-52.691v122.479c13.381-3.304 26.376-6.509 39.386-9.718.924 8.828.946 8.923-7.326 11.012-10.626 2.683-21.297 5.196-32.112 7.822v142.324h52.699v9.037h-82.526z"/><filter id="h" height="152.9%" width="287.7%" x="-69.6%" y="-18.6%"><feMorphology in="SourceAlpha" operator="dilate" radius="6" result="shadowSpreadOuter1"/><feOffset dx="20" dy="23" in="shadowSpreadOuter1" result="shadowOffsetOuter1"/><feGaussianBlur in="shadowOffsetOuter1" result="shadowBlurOuter1" stdDeviation="16"/><feColorMatrix in="shadowBlurOuter1" type="matrix" values="0 0 0 0 0   0 0 0 0 0   0 0 0 0 0  0 0 0 0.442204402 0"/></filter><path id="i" d="m668.542 295.016h-81.436v-293.07h81.451v9.884h-51.579v122.403l39.25-9.695c1.037 8.983 1.052 9.048-7.129 11.106-10.656 2.683-21.336 5.252-32.234 7.924v142.357h51.677z"/><filter id="j" height="152.9%" width="290.3%" x="-70.6%" y="-18.6%"><feMorphology in="SourceAlpha" operator="dilate" radius="6" result="shadowSpreadOuter1"/><feOffset dx="20" dy="23" in="shadowSpreadOuter1" result="shadowOffsetOuter1"/><feGaussianBlur in="shadowOffsetOuter1" result="shadowBlurOuter1" stdDeviation="16"/><feColorMatrix in="shadowBlurOuter1" type="matrix" values="0 0 0 0 0   0 0 0 0 0   0 0 0 0 0  0 0 0 0.442204402 0"/></filter><path id="k" d="m488.698 285.964h52.173v8.954h-82.729v-292.863h30.557z"/><filter id="l" height="152.9%" width="287.4%" x="-69.5%" y="-18.6%"><feMorphology in="SourceAlpha" operator="dilate" radius="6" result="shadowSpreadOuter1"/><feOffset dx="20" dy="23" in="shadowSpreadOuter1" result="shadowOffsetOuter1"/><feGaussianBlur in="shadowOffsetOuter1" result="shadowBlurOuter1" stdDeviation="16"/><feColorMatrix in="shadowBlurOuter1" type="matrix" values="0 0 0 0 0   0 0 0 0 0   0 0 0 0 0  0 0 0 0.442204402 0"/></filter><path id="m" d="m883.476 12.068h-36.177v-10.135h103.165v9.983h-36.934c-.114 2.493-.272 4.438-.272 6.388-.023 88.3-.091 176.597.083 264.896.015 6.025-2.256 8.999-7.682 10.331-7.152 1.764-14.289 3.565-22.184 5.532z"/><filter id="n" height="153.3%" width="250.2%" x="-55.7%" y="-18.3%"><feMorphology in="SourceAlpha" operator="dilate" radius="6" result="shadowSpreadOuter1"/><feOffset dx="20" dy="23" in="shadowSpreadOuter1" result="shadowOffsetOuter1"/><feGaussianBlur in="shadowOffsetOuter1" result="shadowBlurOuter1" stdDeviation="16"/><feColorMatrix in="shadowBlurOuter1" type="matrix" values="0 0 0 0 0   0 0 0 0 0   0 0 0 0 0  0 0 0 0.442204402 0"/></filter><path id="o" d="m741.274 11.905h-37.085c-1.907-10.055-1.657-10.388 7.409-10.388 29.767-.004 59.533 0 89.308-.004h6.236v10.218h-36.132v7.731c-.008 87.687-.091 175.378.113 263.065.016 6.532-2.611 9.627-8.34 11.073-6.948 1.756-13.903 3.458-21.51 5.351z"/><filter id="p" height="153.2%" width="249%" x="-55.1%" y="-18.3%"><feMorphology in="SourceAlpha" operator="dilate" radius="6" result="shadowSpreadOuter1"/><feOffset dx="20" dy="23" in="shadowSpreadOuter1" result="shadowOffsetOuter1"/><feGaussianBlur in="shadowOffsetOuter1" result="shadowBlurOuter1" stdDeviation="16"/><feColorMatrix in="shadowBlurOuter1" type="matrix" values="0 0 0 0 0   0 0 0 0 0   0 0 0 0 0  0 0 0 0.442204402 0"/></filter></defs><g fill="none" fill-rule="evenodd" transform="translate(24 24)"><g><use fill="#000" filter="url(#b)" xlink:href="#a"/><use fill="#fff" fill-rule="evenodd" xlink:href="#a"/></g><g><use fill="#000" filter="url(#d)" xlink:href="#c"/><use fill="#fff" fill-rule="evenodd" xlink:href="#c"/></g><g><use fill="#000" filter="url(#f)" xlink:href="#e"/><use fill="#fff" fill-rule="evenodd" xlink:href="#e"/></g><g><use fill="#000" filter="url(#h)" xlink:href="#g"/><use fill="#fff" fill-rule="evenodd" xlink:href="#g"/></g><g><use fill="#000" filter="url(#j)" xlink:href="#i"/><use fill="#fff" fill-rule="evenodd" xlink:href="#i"/></g><g><use fill="#000" filter="url(#l)" xlink:href="#k"/><use fill="#fff" fill-rule="evenodd" xlink:href="#k"/></g><g><use fill="#000" filter="url(#n)" xlink:href="#m"/><use fill="#fff" fill-rule="evenodd" xlink:href="#m"/></g><g><use fill="#000" filter="url(#p)" xlink:href="#o"/><use fill="#fff" fill-rule="evenodd" xlink:href="#o"/></g></g></svg>