<?xml version="1.0" standalone="no"?>
<!DOCTYPE svg PUBLIC "-//W3C//DTD SVG 20010904//EN"
 "http://www.w3.org/TR/2001/REC-SVG-20010904/DTD/svg10.dtd">
<svg version="1.0" xmlns="http://www.w3.org/2000/svg"
 width="469.000000pt" height="469.000000pt" viewBox="0 0 469.000000 469.000000"
 preserveAspectRatio="xMidYMid meet">
<metadata>
Created by potrace 1.14, written by Peter Selinger 2001-2017
</metadata>
<g transform="translate(0.000000,469.000000) scale(0.100000,-0.100000)"
fill="#000000" stroke="none">
<path d="M2125 4683 c-236 -26 -484 -88 -675 -168 -687 -287 -1197 -876 -1380
-1593 -31 -124 -37 -157 -60 -342 -11 -94 -11 -366 1 -485 39 -389 194 -794
431 -1122 32 -46 65 -89 71 -96 7 -7 41 -46 77 -87 202 -231 434 -407 720
-549 229 -112 471 -189 685 -216 28 -4 77 -10 110 -15 82 -11 391 -10 495 1
413 45 818 206 1155 459 50 38 105 82 124 99 113 102 220 212 286 296 22 28
42 52 45 55 3 3 26 34 51 70 220 312 358 665 413 1060 14 101 16 516 3 580 -3
14 -11 59 -17 100 -85 544 -393 1076 -830 1430 -30 25 -57 48 -60 51 -25 30
-267 177 -395 239 -257 126 -501 197 -790 230 -68 7 -399 10 -460 3z"/>
</g>
</svg>
